<svg width="1270" height="182" viewBox="0 0 1270 182" fill="none" xmlns="http://www.w3.org/2000/svg">
<path fill-rule="evenodd" clip-rule="evenodd" d="M0 17.559L55.75 35.5958C111.5 53.6325 223 89.706 334.5 125.78C446 161.853 557.5 197.926 669 167.865C780.5 137.804 892 41.608 1003.5 11.5468C1115 -18.5145 1226.5 17.559 1282.25 35.5958L1338 53.6325V234H1282.25C1226.5 234 1115 234 1003.5 234C892 234 780.5 234 669 234C557.5 234 446 234 334.5 234C223 234 111.5 234 55.75 234H0V17.559Z" fill="#0099FF"/>
</svg>
